<svg width="64" height="64" viewBox="0 0 64 64" fill="none" xmlns="http://www.w3.org/2000/svg">
  <defs>
    <linearGradient id="blueGradient" x1="0" y1="0" x2="64" y2="64" gradientUnits="userSpaceOnUse">
      <stop offset="0%" stop-color="#1e40af"/>
      <stop offset="100%" stop-color="#3b82f6"/>
    </linearGradient>
  </defs>

  <!-- Guitar Pick Shape -->
  <path d="M32 5 C 45 5, 55 12.5, 57.5 22.5 C 60 32.5, 57.5 42.5, 52.5 50 C 47.5 57.5, 37.5 62.5, 32 62.5 C 26.5 62.5, 16.5 57.5, 11.5 50 C 6.5 42.5, 4 32.5, 6.5 22.5 C 9 12.5, 19 5, 32 5 Z" fill="url(#blueGradient)"/>

  <!-- Musical Note -->
  <circle cx="32" cy="35" r="6" fill="white" opacity="0.95"/>
  <path d="M38 35 L38 18 L48 16 L48 33 C48 34.5, 46.5 36, 44.5 36 C42.5 36, 41 34.5, 41 33 C41 31.5, 42.5 30, 44.5 30 C45.2 30, 45.8 30.2, 46.5 30.5 L46.5 22 L40.5 23.5 L40.5 35" fill="white" opacity="0.95"/>
</svg>
